Coordinates
version=1
nRows=14
nColumns=24
inDegrees=yes

Units are S.I. units (second, meters, Newtons, ...)
Angles are in degrees.

endheader
time	pelvis_tilt	pelvis_list	pelvis_rotation	pelvis_tx	pelvis_ty	pelvis_tz	hip_flexion_r	hip_adduction_r	hip_rotation_r	knee_angle_r	ankle_angle_r	subtalar_angle_r	mtp_angle_r	hip_flexion_l	hip_adduction_l	hip_rotation_l	knee_angle_l	ankle_angle_l	subtalar_angle_l	mtp_angle_l	lumbar_extension	lumbar_bending	lumbar_rotation
      3.80000000	     -9.60638381	     -3.26036567	     10.86669895	     -1.34229031	     -0.04633561	      0.66147058	     36.55690038	     -4.15968939	    -21.88152070	    -12.68882573	     -0.45789267	      6.45149781	      1.48094064	     -7.91831017	     -1.15701095	      8.97156975	    -10.66700090	     16.47120632	     14.73232509	      0.99110593	      7.20626280	      0.75415431	    -15.20314196
      3.80500000	     -9.63605549	     -3.58054568	     10.95084213	     -1.33435430	     -0.04761883	      0.66190510	     36.61675682	     -3.80436317	    -21.56952375	    -13.31932114	     -1.25812383	      5.95954597	      1.41174088	     -7.96349902	     -1.67036313	      8.28710334	    -11.41081951	     16.72794587	     15.99667284	      1.15748300	      7.47976232	      1.04493602	    -15.34801081
      3.81000000	     -9.67433332	     -3.91705444	     11.01150193	     -1.32637258	     -0.04882680	      0.66229557	     36.70602803	     -3.45088463	    -21.30920113	    -13.98460040	     -2.21093036	      5.48087072	      1.63518406	     -8.03274876	     -2.18284817	      7.86698776	    -12.08681464	     16.81333833	     16.82954954	      1.38546828	      7.77479376	      1.36723180	    -15.46158135
      3.81500000	     -9.71056924	     -4.28193920	     11.02006442	     -1.31836372	     -0.04994786	      0.66273029	     36.81789499	     -3.05025862	    -20.99432587	    -14.67389923	     -3.31441706	      4.85044469	      1.93362238	     -8.08393856	     -2.72483626	      7.37113370	    -12.79460355	     16.82854577	     17.69253192	      1.67106038	      8.07837164	      1.73548004	    -15.50481422
      3.82000000	     -9.74852813	     -4.67534092	     11.00246484	     -1.31035610	     -0.05097619	      0.66319926	     36.95689049	     -2.61578314	    -20.62478217	    -15.40255499	     -4.48427077	      4.08298288	      2.15000141	     -8.09802971	     -3.29460878	      6.85259892	    -13.55763265	     16.76850045	     18.52845927	      1.99515652	      8.38494937	      2.13354825	    -15.53703999
      3.82500000	     -9.79038665	     -5.09029798	     10.93414756	     -1.30232922	     -0.05191577	      0.66371245	     37.13003040	     -2.13857588	    -20.18665562	    -16.18274325	     -5.67525328	      3.16647824	      2.25380949	     -8.08030165	     -3.88554967	      6.26904406	    -14.37224049	     16.62502885	     19.39530472	      2.37982863	      8.70348001	      2.56908946	    -15.50313229
      3.83000000	     -9.82943132	     -5.50660256	     10.81664706	     -1.29430183	     -0.05276399	      0.66429381	     37.33118521	     -1.63065082	    -19.67091897	    -17.02967712	     -6.81958035	      2.09268599	      2.22981545	     -8.03293408	     -4.48220763	      5.60217959	    -15.25070146	     16.37887380	     20.32304727	      2.86150717	      9.01526210	      3.01593101	    -15.40205869
      3.83500000	     -9.86905722	     -5.92310165	     10.66322281	     -1.28627373	     -0.05352783	      0.66488845	     37.55665435	     -1.10052529	    -19.07886293	    -17.94498778	     -7.86037966	      0.90552238	      2.05466596	     -7.94799073	     -5.08082445	      4.87669673	    -16.20040882	     16.02748695	     21.28505892	      3.46008943	      9.32633928	      3.47897649	    -15.26587792
      3.84000000	     -9.91400063	     -6.33887579	     10.46302578	     -1.27822666	     -0.05421554	      0.66558019	     37.80517029	     -0.53123031	    -18.42968862	    -18.91868432	     -8.75216993	     -0.37700277	      1.73044933	     -7.81480115	     -5.68795289	      4.08071467	    -17.23731139	     15.53796235	     22.29438254	      4.21203064	      9.63625516	      3.94138167	    -15.07779151
      3.84500000	     -9.96756438	     -6.75017603	     10.25112159	     -1.27017150	     -0.05481448	      0.66624631	     38.05640019	      0.05338495	    -17.71785496	    -19.91722811	     -9.46677345	     -1.69534982	      1.28970534	     -7.62031812	     -6.29593683	      3.24341958	    -18.36876292	     14.89341396	     23.30230534	      5.07556842	      9.95817511	      4.40830820	    -14.89084418
      3.85000000	    -10.02046758	     -7.15436379	      9.99307931	     -1.26212445	     -0.05534921	      0.66697857	     38.31381756	      0.67356927	    -16.98714019	    -20.95708451	    -10.00343164	     -2.99466333	      0.78825627	     -7.38400020	     -6.91000779	      2.37119090	    -19.58529332	     14.09996946	     24.34621799	      6.14605179	     10.26886991	      4.88111973	    -14.64047979
      3.85500000	    -10.00940833	     -7.48249258	      9.75007421	     -1.25420172	     -0.05572822	      0.66775392	     38.49116266	      1.24835697	    -16.25335399	    -22.02243235	    -10.29325988	     -4.20265313	      0.21683610	     -7.16332887	     -7.48348947	      1.48386244	    -20.84932350	     13.01001009	     25.43324457	      7.89895646	     10.46697371	      5.27862919	    -14.34703331
      3.86000000	    -10.03736672	     -7.83459883	      9.51135582	     -1.24618401	     -0.05605066	      0.66851405	     38.66586419	      1.86244735	    -15.54490944	    -23.03156751	    -10.43116999	     -5.43638948	     -0.25016138	     -6.85665564	     -8.08085475	      0.69184629	    -22.19151772	     11.75849613	     26.36646589	      9.56092884	     10.73017192	      5.69113172	    -14.14714699
      3.86500000	    -10.12046270	     -8.18437914	      9.24369532	     -1.23822769	     -0.05634707	      0.66929963	     38.86506636	      2.49575556	    -14.85764755	    -23.97641756	    -10.51077342	     -6.61441328	     -0.52246743	     -6.40754041	     -8.68005607	     -0.07205138	    -23.73497019	     10.49768035	     27.38099226	     10.42411610	     11.03903998	      6.10110317	    -13.89430691
